<svg width="24" height="25" viewBox="0 0 24 25" fill="none" xmlns="http://www.w3.org/2000/svg">
<path d="M12.12 14.4545C12.1 14.4545 12.07 14.4545 12.05 14.4545C12.02 14.4545 11.98 14.4545 11.95 14.4545C9.67998 14.3845 7.97998 12.6145 7.97998 10.4345C7.97998 8.21454 9.78998 6.40454 12.01 6.40454C14.23 6.40454 16.04 8.21454 16.04 10.4345C16.03 12.6245 14.32 14.3845 12.15 14.4545C12.13 14.4545 12.13 14.4545 12.12 14.4545ZM12 7.89454C10.6 7.89454 9.46998 9.03454 9.46998 10.4245C9.46998 11.7945 10.54 12.9045 11.9 12.9545C11.93 12.9445 12.03 12.9445 12.13 12.9545C13.47 12.8845 14.52 11.7845 14.53 10.4245C14.53 9.03454 13.4 7.89454 12 7.89454Z" fill="#292D32"></path>
<path d="M12.0001 23.6745C9.31008 23.6745 6.74008 22.6745 4.75008 20.8545C4.57008 20.6945 4.49008 20.4545 4.51008 20.2245C4.64008 19.0345 5.38008 17.9245 6.61008 17.1045C9.59008 15.1245 14.4201 15.1245 17.3901 17.1045C18.6201 17.9345 19.3601 19.0345 19.4901 20.2245C19.5201 20.4645 19.4301 20.6945 19.2501 20.8545C17.2601 22.6745 14.6901 23.6745 12.0001 23.6745ZM6.08008 20.0245C7.74008 21.4145 9.83008 22.1745 12.0001 22.1745C14.1701 22.1745 16.2601 21.4145 17.9201 20.0245C17.7401 19.4145 17.2601 18.8245 16.5501 18.3445C14.0901 16.7045 9.92008 16.7045 7.44008 18.3445C6.73008 18.8245 6.26008 19.4145 6.08008 20.0245Z" fill="#292D32"></path>
<path d="M12 23.6746C6.07 23.6746 1.25 18.8546 1.25 12.9246C1.25 6.99456 6.07 2.17456 12 2.17456C17.93 2.17456 22.75 6.99456 22.75 12.9246C22.75 18.8546 17.93 23.6746 12 23.6746ZM12 3.67456C6.9 3.67456 2.75 7.82456 2.75 12.9246C2.75 18.0246 6.9 22.1746 12 22.1746C17.1 22.1746 21.25 18.0246 21.25 12.9246C21.25 7.82456 17.1 3.67456 12 3.67456Z" fill="#292D32"></path>
</svg>