<svg width="24" height="25" viewBox="0 0 24 25" fill="none" xmlns="http://www.w3.org/2000/svg">
<path d="M11.5 22.6746C5.85 22.6746 1.25 18.0746 1.25 12.4246C1.25 6.77456 5.85 2.17456 11.5 2.17456C17.15 2.17456 21.75 6.77456 21.75 12.4246C21.75 18.0746 17.15 22.6746 11.5 22.6746ZM11.5 3.67456C6.67 3.67456 2.75 7.60456 2.75 12.4246C2.75 17.2446 6.67 21.1746 11.5 21.1746C16.33 21.1746 20.25 17.2446 20.25 12.4246C20.25 7.60456 16.33 3.67456 11.5 3.67456Z" fill="#292D32"></path>
<path d="M21.9999 23.6745C21.8099 23.6745 21.6199 23.6045 21.4699 23.4545L19.4699 21.4545C19.1799 21.1645 19.1799 20.6845 19.4699 20.3945C19.7599 20.1045 20.2399 20.1045 20.5299 20.3945L22.5299 22.3945C22.8199 22.6845 22.8199 23.1645 22.5299 23.4545C22.3799 23.6045 22.1899 23.6745 21.9999 23.6745Z" fill="#292D32"></path>
</svg>