<svg width="24" height="25" viewBox="0 0 24 25" fill="none" xmlns="http://www.w3.org/2000/svg">
<path d="M16.5 9.55462C16.09 9.55462 15.75 9.21462 15.75 8.80462V7.42462C15.75 6.37462 15.3 5.35462 14.52 4.64462C13.73 3.92462 12.71 3.59462 11.63 3.69462C9.83 3.86462 8.25 5.70462 8.25 7.62462V8.59462C8.25 9.00462 7.91 9.34462 7.5 9.34462C7.09 9.34462 6.75 9.00462 6.75 8.59462V7.61462C6.75 4.92462 8.92 2.44462 11.49 2.19462C12.99 2.05462 14.43 2.52462 15.53 3.53462C16.62 4.52462 17.25 5.94462 17.25 7.42462V8.80462C17.25 9.21462 16.91 9.55462 16.5 9.55462Z" fill="#292D32"></path>
<path d="M15.0001 23.6746H9.00006C4.38006 23.6746 3.52006 21.5246 3.30006 19.4346L2.55006 13.4446C2.44006 12.3646 2.40006 10.8146 3.45006 9.65456C4.35006 8.65456 5.84006 8.17456 8.00006 8.17456H16.0001C18.1701 8.17456 19.6601 8.66456 20.5501 9.65456C21.5901 10.8146 21.5601 12.3646 21.4501 13.4246L20.7001 19.4346C20.4801 21.5246 19.6201 23.6746 15.0001 23.6746ZM8.00006 9.67456C6.31006 9.67456 5.15006 10.0046 4.56006 10.6646C4.07006 11.2046 3.91006 12.0346 4.04006 13.2746L4.79006 19.2646C4.96006 20.8646 5.40006 22.1846 9.00006 22.1846H15.0001C18.6001 22.1846 19.0401 20.8746 19.2101 19.2846L19.9601 13.2746C20.0901 12.0546 19.9301 11.2246 19.4401 10.6746C18.8501 10.0046 17.6901 9.67456 16.0001 9.67456H8.00006Z" fill="#292D32"></path>
<path d="M15.4199 14.0746C14.8599 14.0746 14.4099 13.6246 14.4099 13.0746C14.4099 12.5246 14.8599 12.0746 15.4099 12.0746C15.9599 12.0746 16.4099 12.5246 16.4099 13.0746C16.4099 13.6246 15.9699 14.0746 15.4199 14.0746Z" fill="#292D32"></path>
<path d="M8.41991 14.0746C7.85991 14.0746 7.40991 13.6246 7.40991 13.0746C7.40991 12.5246 7.85991 12.0746 8.40991 12.0746C8.95991 12.0746 9.40991 12.5246 9.40991 13.0746C9.40991 13.6246 8.96991 14.0746 8.41991 14.0746Z" fill="#292D32"></path>
</svg>