<svg xmlns="http://www.w3.org/2000/svg" width="145" height="25" viewBox="0 0 145 25" fill="none">
<path  d="M22.8997 11.2014L18.5644 14.8077L19.9359 20.3803C19.999 20.6139 20.0076 20.8589 19.9612 21.0963C19.9148 21.3338 19.8146 21.5574 19.6683 21.7501C19.5219 21.9428 19.3333 22.0993 19.117 22.2077C18.9007 22.3161 18.6624 22.3734 18.4205 22.3753C18.1242 22.374 17.8345 22.2874 17.586 22.126L12.7424 19.0663H12.7232L8.22485 21.9149C7.93425 22.0983 7.59557 22.1907 7.25213 22.1805C6.90869 22.1702 6.57612 22.0577 6.29698 21.8574C6.0094 21.6476 5.79159 21.3561 5.67185 21.0208C5.55212 20.6856 5.536 20.322 5.62558 19.9775L6.92042 14.8845L2.56593 11.2014C2.31888 10.9949 2.13934 10.7192 2.05044 10.4098C1.96154 10.1004 1.96737 9.77142 2.06718 9.46534C2.16437 9.16388 2.34979 8.89852 2.59944 8.70359C2.84909 8.50865 3.15149 8.39312 3.46752 8.37192L9.12644 8.00745L11.2749 2.65546C11.3901 2.36235 11.5907 2.11058 11.8506 1.93274C12.1105 1.75489 12.4179 1.65917 12.7328 1.65796C13.0477 1.65917 13.3551 1.75489 13.615 1.93274C13.8749 2.11058 14.0755 2.36235 14.1907 2.65546L16.3008 7.97868L21.9981 8.37192C22.3145 8.39183 22.6175 8.50688 22.8674 8.702C23.1173 8.89712 23.3024 9.16319 23.3984 9.46534C23.4982 9.77142 23.504 10.1004 23.4151 10.4098C23.3263 10.7192 23.1467 10.9949 22.8997 11.2014V11.2014Z" fill="#873A8D"></path>
<path d="M52.8997 11.2014L48.5644 14.8077L49.9359 20.3803C49.999 20.6139 50.0076 20.8589 49.9612 21.0963C49.9148 21.3338 49.8146 21.5574 49.6683 21.7501C49.5219 21.9428 49.3333 22.0993 49.117 22.2077C48.9007 22.3161 48.6624 22.3734 48.4205 22.3753C48.1242 22.374 47.8345 22.2874 47.586 22.126L42.7424 19.0663H42.7232L38.2248 21.9149C37.9343 22.0983 37.5956 22.1907 37.2521 22.1805C36.9087 22.1702 36.5761 22.0577 36.297 21.8574C36.0094 21.6476 35.7916 21.3561 35.6719 21.0208C35.5521 20.6856 35.536 20.322 35.6256 19.9775L36.9204 14.8845L32.5659 11.2014C32.3189 10.9949 32.1393 10.7192 32.0504 10.4098C31.9615 10.1004 31.9674 9.77142 32.0672 9.46534C32.1644 9.16388 32.3498 8.89852 32.5994 8.70359C32.8491 8.50865 33.1515 8.39312 33.4675 8.37192L39.1264 8.00745L41.2749 2.65546C41.3901 2.36235 41.5907 2.11058 41.8506 1.93274C42.1105 1.75489 42.4179 1.65917 42.7328 1.65796C43.0477 1.65917 43.3551 1.75489 43.615 1.93274C43.8749 2.11058 44.0755 2.36235 44.1907 2.65546L46.3008 7.97868L51.9981 8.37192C52.3145 8.39183 52.6175 8.50688 52.8674 8.702C53.1173 8.89712 53.3024 9.16319 53.3984 9.46534C53.4982 9.77142 53.504 10.1004 53.4151 10.4098C53.3263 10.7192 53.1467 10.9949 52.8997 11.2014Z" fill="#873A8D"></path>
<path d="M82.8997 11.2014L78.5644 14.8077L79.9359 20.3803C79.999 20.6139 80.0076 20.8589 79.9612 21.0963C79.9148 21.3338 79.8146 21.5574 79.6683 21.7501C79.5219 21.9428 79.3333 22.0993 79.117 22.2077C78.9007 22.3161 78.6624 22.3734 78.4205 22.3753C78.1242 22.374 77.8345 22.2874 77.586 22.126L72.7424 19.0663H72.7232L68.2248 21.9149C67.9343 22.0983 67.5956 22.1907 67.2521 22.1805C66.9087 22.1702 66.5761 22.0577 66.297 21.8574C66.0094 21.6476 65.7916 21.3561 65.6719 21.0208C65.5521 20.6856 65.536 20.322 65.6256 19.9775L66.9204 14.8845L62.5659 11.2014C62.3189 10.9949 62.1393 10.7192 62.0504 10.4098C61.9615 10.1004 61.9674 9.77142 62.0672 9.46534C62.1644 9.16388 62.3498 8.89852 62.5994 8.70359C62.8491 8.50865 63.1515 8.39312 63.4675 8.37192L69.1264 8.00745L71.2749 2.65546C71.3901 2.36235 71.5907 2.11058 71.8506 1.93274C72.1105 1.75489 72.4179 1.65917 72.7328 1.65796C73.0477 1.65917 73.3551 1.75489 73.615 1.93274C73.8749 2.11058 74.0755 2.36235 74.1907 2.65546L76.3008 7.97868L81.9981 8.37192C82.3145 8.39183 82.6175 8.50688 82.8674 8.702C83.1173 8.89712 83.3024 9.16319 83.3984 9.46534C83.4982 9.77142 83.504 10.1004 83.4151 10.4098C83.3263 10.7192 83.1467 10.9949 82.8997 11.2014Z" fill="#873A8D"></path>
<path d="M112.9 11.2014L108.564 14.8077L109.936 20.3803C109.999 20.6139 110.008 20.8589 109.961 21.0963C109.915 21.3338 109.815 21.5574 109.668 21.7501C109.522 21.9428 109.333 22.0993 109.117 22.2077C108.901 22.3161 108.662 22.3734 108.42 22.3753C108.124 22.374 107.834 22.2874 107.586 22.126L102.742 19.0663H102.723L98.2248 21.9149C97.9343 22.0983 97.5956 22.1907 97.2521 22.1805C96.9087 22.1702 96.5761 22.0577 96.297 21.8574C96.0094 21.6476 95.7916 21.3561 95.6719 21.0208C95.5521 20.6856 95.536 20.322 95.6256 19.9775L96.9204 14.8845L92.5659 11.2014C92.3189 10.9949 92.1393 10.7192 92.0504 10.4098C91.9615 10.1004 91.9674 9.77142 92.0672 9.46534C92.1644 9.16388 92.3498 8.89852 92.5994 8.70359C92.8491 8.50865 93.1515 8.39312 93.4675 8.37192L99.1264 8.00745L101.275 2.65546C101.39 2.36235 101.591 2.11058 101.851 1.93274C102.111 1.75489 102.418 1.65917 102.733 1.65796C103.048 1.65917 103.355 1.75489 103.615 1.93274C103.875 2.11058 104.075 2.36235 104.191 2.65546L106.301 7.97868L111.998 8.37192C112.314 8.39183 112.617 8.50688 112.867 8.702C113.117 8.89712 113.302 9.16319 113.398 9.46534C113.498 9.77142 113.504 10.1004 113.415 10.4098C113.326 10.7192 113.147 10.9949 112.9 11.2014Z" fill="#873A8D"></path>
<path d="M142.9 11.2014L138.564 14.8077L139.936 20.3803C139.999 20.6139 140.008 20.8589 139.961 21.0963C139.915 21.3338 139.815 21.5574 139.668 21.7501C139.522 21.9428 139.333 22.0993 139.117 22.2077C138.901 22.3161 138.662 22.3734 138.42 22.3753C138.124 22.374 137.834 22.2874 137.586 22.126L132.742 19.0663H132.723L128.225 21.9149C127.934 22.0983 127.596 22.1907 127.252 22.1805C126.909 22.1702 126.576 22.0577 126.297 21.8574C126.009 21.6476 125.792 21.3561 125.672 21.0208C125.552 20.6856 125.536 20.322 125.626 19.9775L126.92 14.8845L122.566 11.2014C122.319 10.9949 122.139 10.7192 122.05 10.4098C121.962 10.1004 121.967 9.77142 122.067 9.46534C122.164 9.16388 122.35 8.89852 122.599 8.70359C122.849 8.50865 123.151 8.39312 123.468 8.37192L129.126 8.00745L131.275 2.65546C131.39 2.36235 131.591 2.11058 131.851 1.93274C132.111 1.75489 132.418 1.65917 132.733 1.65796C133.048 1.65917 133.355 1.75489 133.615 1.93274C133.875 2.11058 134.075 2.36235 134.191 2.65546L136.301 7.97868L141.998 8.37192C142.314 8.39183 142.617 8.50688 142.867 8.702C143.117 8.89712 143.302 9.16319 143.398 9.46534C143.498 9.77142 143.504 10.1004 143.415 10.4098C143.326 10.7192 143.147 10.9949 142.9 11.2014Z" fill="#873A8D"></path>
</svg>